<?xml version="1.0" encoding="UTF-8" standalone="no"?>
<!-- Created with Inkscape (http://www.inkscape.org/) -->

<svg
   xmlns:osb="http://www.openswatchbook.org/uri/2009/osb"
   xmlns:dc="http://purl.org/dc/elements/1.1/"
   xmlns:cc="http://creativecommons.org/ns#"
   xmlns:rdf="http://www.w3.org/1999/02/22-rdf-syntax-ns#"
   xmlns:svg="http://www.w3.org/2000/svg"
   xmlns="http://www.w3.org/2000/svg"
   xmlns:xlink="http://www.w3.org/1999/xlink"
   xmlns:sodipodi="http://sodipodi.sourceforge.net/DTD/sodipodi-0.dtd"
   xmlns:inkscape="http://www.inkscape.org/namespaces/inkscape"
   width="210mm"
   height="297mm"
   viewBox="0 0 744.09448819 1052.3622047"
   id="svg2"
   version="1.1"
   inkscape:version="0.48.5 r10040"
   sodipodi:docname="git_chico.svg"
   inkscape:export-filename="/home/wilbur/._qA30/git_tigt/git_propa_chica.png"
   inkscape:export-xdpi="240"
   inkscape:export-ydpi="240">
  <defs
     id="defs4">
    <linearGradient
       id="linearGradient11041"
       osb:paint="solid">
      <stop
         style="stop-color:#000000;stop-opacity:1;"
         offset="0"
         id="stop11043" />
    </linearGradient>
    <linearGradient
       inkscape:collect="always"
       xlink:href="#linearGradient11041"
       id="linearGradient11045"
       x1="1369.9431"
       y1="750.00385"
       x2="1625.9431"
       y2="750.00385"
       gradientUnits="userSpaceOnUse" />
    <mask
       maskUnits="userSpaceOnUse"
       id="mask4774">
      <path
         style="fill:#ffffff;fill-opacity:1;fill-rule:evenodd;stroke:none"
         d="m 361.42773,137.3457 a 241.32358,241.32358 0 0 0 -241.32226,241.32422 241.32358,241.32358 0 0 0 187.5957,235.03516 c 0.89966,2.60436 1.37954,8.99131 0.0156,11.36328 -1.45209,2.52538 -2.01959,4.29332 -2.20899,5.61914 -0.1894,1.32583 0.50435,6.8815 -0.3164,9.34375 -0.82075,2.46225 -0.88355,5.55567 -1.19922,6.81836 -0.31567,1.26269 -0.94581,1.95665 -0.31446,2.9668 0.63134,1.01016 0.41007,3.81487 2.57227,3.70703 2.05357,1.07143 2.67941,2.49972 3.57227,2.76758 0.89286,0.26785 0.89174,-0.44754 1.69531,-0.17969 0.80357,0.26786 0.0898,1.16155 0.0898,1.69726 0,0.53572 0.98159,1.69671 0.53516,2.85743 -0.44643,1.16071 -3.92913,6.33872 -4.46485,7.41015 -0.53571,1.07143 -2.05189,4.82199 -2.85546,5.71485 -0.80357,0.89285 -2.05469,3.48242 -1.42969,2.85742 0.625,-0.625 1.16099,-1.69782 1.60742,-2.41211 0.44643,-0.71428 1.42773,-2.85603 2.05273,-3.57031 0.625,-0.71429 0.62639,-2.23187 1.16211,-2.76758 0.46191,-0.46191 1.21316,-1.38876 1.44141,-1.67188 -0.0627,-0.0115 -0.12447,-0.0254 -0.19141,-0.0254 -0.80357,0 0.35743,-0.17773 0.35743,-0.17773 0,0 -0.12955,0.15788 -0.16602,0.20312 0.69005,0.1267 1.09442,0.88923 0.52148,1.13477 -0.625,0.26786 1.07227,0.3577 -0.17773,1.96484 -1.25,1.60714 -1.87528,2.05413 -2.23242,3.83985 -0.35714,1.78571 0.17829,2.41127 0.26758,1.33984 0.0893,-1.07143 -0.17802,-1.87584 0.71484,-2.94727 0.89286,-1.07143 1.78488,-2.14313 1.42773,-0.35742 -0.35714,1.78571 -0.17773,2.05441 -0.80273,2.94727 -0.625,0.89286 -0.89286,0.3563 -1.25,1.42773 -0.35714,1.07143 -0.98242,1.69588 -0.35742,2.41016 0.625,0.71429 0.89286,0.80413 0.625,1.96484 -0.26786,1.16071 0,2.58985 -1.875,3.21485 -1.875,0.625 -3.12388,1.6077 -1.69531,1.33984 1.42857,-0.26786 2.58817,-1.69755 2.94531,-1.42969 0.35714,0.26786 1.16071,0.44755 0,1.42969 -1.16072,0.98214 -1.07143,0.53432 -2.5,1.33789 -1.42857,0.80357 -0.5346,0.44727 0.17969,0.44727 0.71429,0 0.71379,0.0885 -0.0899,0.80273 -0.80357,0.71428 1.69531,0.0907 2.32031,-0.71289 0.625,-0.80357 0.44727,-0.80385 1.69727,-1.60742 1.25,-0.80357 1.16127,-1.96541 1.96484,-2.05469 0.80357,-0.0893 0.71457,-0.5346 0.98243,0.80469 0.26786,1.33928 -0.44727,2.05273 -0.44727,2.05273 0,0 0.2673,0.80469 1.16016,0.17969 0.89285,-0.625 1.16182,-0.89344 1.42968,-0.0898 0.26785,0.80357 0.0888,1.33844 -0.71484,1.42773 -0.80357,0.0893 -0.89286,-0.8923 -2.5,-0.53516 -1.60714,0.35715 -2.67913,0.0893 -3.21484,1.25 -0.53572,1.16072 -0.71318,3.66016 -0.44532,4.28516 0.26785,0.625 -0.35798,-1.69559 0.17774,-2.05273 0.53571,-0.35715 0.17857,-0.62611 0.625,-1.42969 0.44643,-0.80357 1.51842,-1.42774 1.96484,-1.42774 0.44643,0 2.3217,0.44727 2.85742,0.44727 0.53571,0 0.80302,-0.53599 1.78516,0.26758 0.98214,0.80357 1.42885,1.78459 2.23242,1.69531 0.80358,-0.0893 0.089,-0.44643 1.51758,-0.625 1.42857,-0.17857 2.7673,0.0901 3.66016,-0.80273 0.89285,-0.89286 -0.80274,1.33956 -0.80274,1.60742 0,0.26786 0.35715,-0.44755 1.25,-0.80469 0.89285,-0.35713 2.14258,-0.35742 2.14258,-0.35742 0,0 -1.42829,-0.8019 -0.26758,-0.35547 1.16072,0.44643 0.80385,0.35714 0.98242,1.875 0.17857,1.51786 -2.7e-4,2.23214 0.26758,3.125 0.26786,0.89286 0.89342,2.32143 1.96485,3.75 1.07143,1.42857 2.05217,3.03405 3.21289,2.85547 1.16071,-0.17857 0.89313,-0.8019 2.23242,-0.35547 1.33928,0.44643 1.16043,0.89202 2.76758,1.42773 1.60714,0.53572 1.96484,0.80385 3.21484,1.60743 1.25,0.80357 0.80301,-0.71429 1.78516,0.625 0.98214,1.33928 0.71568,1.87472 1.16211,2.14257 0.44643,0.26786 1.42717,0.71429 1.96289,0 0.53571,-0.71428 0.98298,-2.32143 1.69726,-2.5 0.71429,-0.17857 1.87388,-0.80357 2.32031,-1.25 0.44643,-0.44643 -0.17857,-0.98158 -0.625,-1.78515 -0.44643,-0.80357 -1.15959,-1.87612 -0.44531,-2.05469 0.71429,-0.17857 1.25056,-0.0885 1.96485,0.44727 0.71429,0.53571 1.42828,1.24944 2.14257,1.78515 0.71428,0.53571 1.33873,0.80302 0.53516,1.78516 -0.80357,0.98215 -1.78655,1.33929 -1.69727,2.5 0.0893,1.16072 0.17941,2.41127 -0.17773,3.21484 -0.35714,0.80357 0.44643,1.16043 0.625,0.26758 0.17857,-0.89286 0.71484,-0.17884 0.71484,0.89258 0,1.07143 1.07172,0.17885 1.60743,-0.26758 0.53571,-0.44643 -0.35798,-1.60575 0.80273,-1.96289 1.16072,-0.35714 1.69643,-0.17969 1.875,-0.80469 0.17857,-0.625 -0.44588,-2.67801 -1.16016,-4.91015 -0.71429,-2.23215 -0.44726,-4.73326 -2.32226,-5.17969 -1.875,-0.44642 -2.411,-1.16016 -1.60742,-1.16016 0.80357,0 1.07142,-0.089 1.25,-0.89258 0.17857,-0.80357 0.35742,-0.35797 1.60742,-1.07226 1.25,-0.71428 1.16043,-1.5173 2.14258,-2.41016 0.98214,-0.89286 1.07114,-0.53599 1.51757,-1.60742 0.44643,-1.07143 0.0907,-1.42773 -0.0879,-2.05273 -0.17857,-0.625 -0.17857,-2.32199 0.625,-2.58985 0.80357,-0.26786 1.161,0.53571 1.60743,0 0.44643,-0.53571 -0.17886,-0.26841 0.26757,-1.96484 0.44643,-1.69642 0.62361,-2.49889 1.33789,-3.57031 0.71429,-1.07143 1.78684,-2.14286 0.80469,-1.875 -0.98214,0.26785 -0.9827,-8.4e-4 -1.33984,-1.07227 -0.35714,-1.07143 -0.44699,-1.60631 -0.71485,-2.67773 -0.26785,-1.07143 -0.26701,-0.89397 0.44727,-2.05469 0.71429,-1.16071 0.3563,-2.49861 0.80273,-2.58789 0.44643,-0.0893 -0.53487,-0.71401 0.44727,-1.51758 0.98214,-0.80357 0.35714,-0.0907 1.25,-1.78711 0.89286,-1.69643 5.8e-4,-1.87527 0.0898,-2.85742 0.0893,-0.98214 -1.24971,-0.62361 -0.89257,-1.96289 0.35714,-1.33929 -0.53571,-1.51925 0,-2.41211 0.53571,-0.89285 -10e-4,-2.94587 0.71289,-2.41016 0.71428,0.53571 -0.0882,-1.78626 0.80468,-1.33984 0.89285,0.44643 0.71289,-1.1596 1.33789,-1.07031 0.625,0.0893 1.33929,-0.44727 1.875,-1.07227 0.53572,-0.625 1.1624,-2.94587 1.51954,-3.66016 0.35714,-0.71428 1.42689,-3.125 1.60546,-3.75 0.17857,-0.625 0.44755,-6.6063 0.17969,-8.30273 -0.26785,-1.69643 -8.4e-4,-10.80469 -0.44726,-15.17969 -0.0287,-0.28078 -0.0471,-0.57244 -0.0703,-0.85937 A 241.32358,241.32358 0 0 0 602.75195,378.66992 241.32358,241.32358 0 0 0 361.42773,137.3457 z m -2.72461,535.33985 c 0.11845,-0.0388 0.25671,0.0325 0.39454,0.36328 0.36754,0.88212 0.22123,0.73596 0.0742,1.10351 -0.14702,0.36754 -0.44193,0.36647 -1.10352,0.29297 -0.6616,-0.0735 -0.58861,0.29511 -0.66211,-0.29297 -0.0735,-0.58808 0.22105,-0.51455 0.66211,-0.80859 0.36754,-0.0735 0.29492,-0.2207 0.29492,-0.2207 0,0 0.14243,-0.3729 0.33984,-0.4375 z m 0.16797,1.83984 c 0.42814,-0.0593 0.36509,0.5366 0.30079,1.24414 -0.0735,0.80861 -0.51527,0.22017 -0.88282,0.36719 -0.36755,0.14702 -0.9563,0.36719 -1.6914,0.36719 -0.7351,0 -0.58701,-0.44105 -0.29297,-0.8086 1.02914,-0.44106 1.68997,-0.80752 2.35156,-1.10156 0.0827,-0.0367 0.15368,-0.0599 0.21484,-0.0684 z m -38.6289,9.43164 c 0.23431,-0.0551 0.26205,0.30237 0.70312,1.07422 0.58808,1.02915 0.44246,0.36823 0.95703,0.88281 0.51457,0.51457 -10e-4,0.66104 -0.51562,0.95508 -0.51457,0.29404 -0.44138,0.51526 -1.25,0.88281 -0.80861,0.36755 -1.02857,0.51367 -1.76367,0.51367 -0.73511,10e-6 -1.32244,0.22108 -1.54297,-0.14648 -0.22053,-0.36755 -0.51544,-0.2942 -1.10352,-0.2207 -0.58809,0.0735 -0.66177,-0.58753 -0.2207,-0.95508 0,0 -0.0726,-0.73545 0.29492,-0.44141 0.36755,0.29404 -1.9e-4,-0.58912 0.58789,-0.51562 0.58808,0.0735 0.51385,0.36755 0.73438,0 0.22053,-0.36755 -0.0737,-0.95472 1.39648,-1.32227 1.47019,-0.36755 0.80841,-0.0746 1.39649,-0.51562 0.14702,-0.11027 0.24806,-0.17303 0.32617,-0.19141 z m 18.29297,5.12109 c 0.72663,-0.10149 0.29128,1.33831 0.41992,2.4961 0.147,1.32318 0.22127,1.46963 0.0742,1.76367 -0.14702,0.29405 -0.44122,-0.8084 -1.0293,-1.39648 -0.58808,-0.58808 -0.14702,-0.36771 0,-1.0293 0.14702,-0.6616 -0.074,-0.80929 0.14648,-1.69141 0.15621,-0.0827 0.28487,-0.12803 0.38868,-0.14258 z m -3.84571,1.88868 c 0.25499,0.0517 0.24192,1.25113 0.51758,2.07812 0.36755,1.10266 0.73489,1.24874 1.39649,2.13086 0.66159,0.88212 -0.0733,0.88281 -0.5879,0.88281 -0.51456,0 -0.66157,1.5e-4 -0.80859,1.0293 -0.14702,1.02914 0.1465,1.10154 -0.66211,1.91016 -0.80862,0.80861 -0.80808,-0.44105 -0.14648,-0.8086 0.6616,-0.36755 0.2198,-0.58697 -0.0742,-1.91015 -0.29404,-1.32319 0.22073,-0.4421 -0.58789,-1.32422 -0.80861,-0.88212 -1.61771,-1.10259 -2.2793,-2.42578 -0.36756,-1.02914 0.14825,-0.80769 0.73633,-0.51368 0.58808,0.29405 0.36788,-0.22193 1.25,-0.14843 0.88213,0.0735 0.21926,0.66249 0.88086,-0.51367 0.1654,-0.29405 0.28024,-0.40395 0.36523,-0.38672 z m 10.58789,5.45898 c 0,0 1.02879,0.7356 1.17578,1.4707 0.14703,0.7351 -0.14633,1.24963 0.88282,2.42579 1.02914,1.17617 0.29495,0.9547 -0.51367,1.32226 -0.80861,0.36755 -1.25,0.58789 -1.25,0.58789 0,0 -10e-4,-0.44138 0.0723,-1.25 0.0735,-0.80861 -0.66069,-1.02857 -0.51367,-1.76367 0.14702,-0.73511 -0.074,-1.69032 0.14648,-2.79297 z"
         id="path4776"
         inkscape:connector-curvature="0" />
    </mask>
    <mask
       maskUnits="userSpaceOnUse"
       id="mask5766">
      <rect
         style="color:#000000;fill:#ffffff;fill-opacity:1;fill-rule:nonzero;stroke:none;stroke-width:7.47100019;marker:none;visibility:visible;display:inline;overflow:visible;enable-background:accumulate"
         id="rect5768"
         width="746.07404"
         height="1052.3613"
         x="-0.7253657"
         y="0.00091504073"
         transform="matrix(0,-1,1,0,0,0)" />
    </mask>
  </defs>
  <sodipodi:namedview
     id="base"
     pagecolor="#ffffff"
     bordercolor="#666666"
     borderopacity="1.0"
     inkscape:pageopacity="0.0"
     inkscape:pageshadow="2"
     inkscape:zoom="1.4142136"
     inkscape:cx="471.75398"
     inkscape:cy="491.1317"
     inkscape:document-units="px"
     inkscape:current-layer="layer4"
     showgrid="false"
     inkscape:window-width="1600"
     inkscape:window-height="834"
     inkscape:window-x="0"
     inkscape:window-y="27"
     inkscape:window-maximized="1"
     showguides="true"
     inkscape:snap-global="false" />
  <metadata
     id="metadata7">
    <rdf:RDF>
      <cc:Work
         rdf:about="">
        <dc:format>image/svg+xml</dc:format>
        <dc:type
           rdf:resource="http://purl.org/dc/dcmitype/StillImage" />
        <dc:title />
      </cc:Work>
    </rdf:RDF>
  </metadata>
  <g
     inkscape:groupmode="layer"
     id="layer2"
     inkscape:label="fondo"
     style="display:inline"
     sodipodi:insensitive="true">
    <image
       style="display:inline"
       y="-887.3938"
       x="-23.771929"
       id="image5018"
       xlink:href="file:///home/wilbur/._qA30/git_tigt/Textree_01.jpg"
       height="1025.2477"
       width="1281.4756"
       mask="url(#mask5766)"
       transform="matrix(0,1,-1,0,0,0)" />
    <path
       transform="matrix(0.99900694,0,0,1.0112103,-31.729338,-41.074656)"
       d="m 605.67731,295.64313 a 249.21884,249.21884 0 1 1 -498.43769,0 249.21884,249.21884 0 1 1 498.43769,0 z"
       sodipodi:ry="249.21884"
       sodipodi:rx="249.21884"
       sodipodi:cy="295.64313"
       sodipodi:cx="356.45847"
       id="path4030"
       style="fill:none;stroke:#000000;stroke-width:7.59386253;stroke-miterlimit:4;stroke-dasharray:none;display:inline"
       sodipodi:type="arc" />
  </g>
  <g
     inkscape:label="img"
     inkscape:groupmode="layer"
     id="layer1"
     style="display:inline"
     sodipodi:insensitive="true">
    <image
       sodipodi:absref="/Users/OmBot/Pictures/tree_01.jpg"
       y="135.24077"
       x="29.678576"
       id="image4332"
       xlink:href="file:///home/wilbur/._qA30/git_tigt/tree_02.jpg"
       preserveAspectRatio="none"
       height="617.09998"
       width="643.5"
       mask="url(#mask4774)"
       transform="translate(-37.367561,-121.57295)"
       style="fill:#000000;fill-opacity:1" />
  </g>
  <g
     inkscape:groupmode="layer"
     id="layer3"
     inkscape:label="otro"
     style="display:inline"
     sodipodi:insensitive="true">
    <path
       sodipodi:type="arc"
       style="fill:none;stroke:#000000;stroke-width:1.6719619;stroke-miterlimit:4;stroke-dasharray:none"
       id="path3243"
       sodipodi:cx="356.45847"
       sodipodi:cy="295.64313"
       sodipodi:rx="249.21884"
       sodipodi:ry="249.21884"
       d="m 605.67731,295.64313 a 249.21884,249.21884 0 1 1 -498.43769,0 249.21884,249.21884 0 1 1 498.43769,0 z"
       transform="matrix(0.9490834,0,0,0.9490834,-13.93367,-22.707268)" />
    <path
       transform="matrix(0.9264394,0,0,0.9264394,-5.8620371,-16.012735)"
       d="m 605.67731,295.64313 a 249.21884,249.21884 0 1 1 -498.43769,0 249.21884,249.21884 0 1 1 498.43769,0 z"
       sodipodi:ry="249.21884"
       sodipodi:rx="249.21884"
       sodipodi:cy="295.64313"
       sodipodi:cx="356.45847"
       id="path4013"
       style="fill:none;stroke:#000000;stroke-width:7.29524517;stroke-miterlimit:4;stroke-dasharray:none"
       sodipodi:type="arc" />
    <path
       sodipodi:type="arc"
       style="fill:none;stroke:#000000;stroke-width:2.91821146;stroke-miterlimit:4;stroke-dasharray:none"
       id="path4015"
       sodipodi:cx="356.45847"
       sodipodi:cy="295.64313"
       sodipodi:rx="249.21884"
       sodipodi:ry="249.21884"
       d="m 605.67731,295.64313 a 249.21884,249.21884 0 1 1 -498.43769,0 249.21884,249.21884 0 1 1 498.43769,0 z"
       transform="matrix(0.89081357,0,0,0.89081357,6.837092,-5.4802027)" />
  </g>
  <g
     inkscape:groupmode="layer"
     id="layer5"
     inkscape:label="fondo_texto"
     style="display:inline">
    <rect
       style="fill:#000000;fill-opacity:1;stroke:none;display:inline"
       id="rect3066"
       width="104.45325"
       height="19.690441"
       x="94.670479"
       y="459.27295"
       transform="matrix(0.99700223,-0.07737285,0.07737285,0.99700223,0,0)" />
    <rect
       transform="matrix(0.99987997,0.01549356,0.14488927,0.98944788,0,0)"
       y="443.66672"
       x="173.96278"
       height="20.005665"
       width="198.15971"
       id="rect3846"
       style="fill:#000000;fill-opacity:1;stroke:none;display:inline" />
    <rect
       style="fill:#000000;fill-opacity:1;stroke:none;display:inline"
       id="rect3848"
       width="156.74203"
       height="19.232"
       x="465.26691"
       y="455.53503"
       transform="matrix(0.99982147,0.01889521,0.11920911,0.99286917,0,0)" />
    <rect
       transform="matrix(0.99972414,0.02348713,-0.04288098,0.99908019,0,0)"
       y="454.65149"
       x="357.46783"
       height="16.929258"
       width="121.30589"
       id="rect3850"
       style="fill:#000000;fill-opacity:1;stroke:none;display:inline" />
    <rect
       style="fill:#000000;fill-opacity:1;stroke:none;display:inline"
       id="rect3852"
       width="38.206203"
       height="16.159388"
       x="453.36017"
       y="454.89984"
       transform="matrix(0.99976387,-0.0217302,-0.00403618,0.99999185,0,0)" />
    <rect
       transform="matrix(-0.99971617,-0.0238238,0.00368132,0.99999322,0,0)"
       y="451.66641"
       x="-507.42505"
       height="18.46558"
       width="39.822186"
       id="rect3854"
       style="fill:#000000;fill-opacity:1;stroke:none;display:inline" />
    <path
       style="color:#000000;fill:#e4e0e0;fill-opacity:1;fill-rule:nonzero;stroke:none;stroke-width:7.47100019;marker:none;visibility:visible;display:inline;overflow:visible;enable-background:accumulate"
       d="m 446.9133,643.30612 0.95596,12.57018 110.65209,1.29083 -0.53109,-12.57018 -111.07696,-1.29083 z"
       id="path4384"
       inkscape:connector-curvature="0" />
    <path
       style="color:#000000;fill:#e4e0e0;fill-opacity:1;fill-rule:nonzero;stroke:none;stroke-width:7.47100019;marker:none;visibility:visible;display:inline;overflow:visible;enable-background:accumulate"
       d="m 441.76175,658.6377 -0.9294,-14.56725 -19.75646,-0.24933 -0.9294,14.53165 21.61526,0.28493 z"
       id="path4380"
       inkscape:connector-curvature="0" />
    <path
       style="color:#000000;fill:#e4e0e0;fill-opacity:1;fill-rule:nonzero;stroke:none;stroke-width:7.47100019;marker:none;visibility:visible;display:inline;overflow:visible;enable-background:accumulate"
       d="m 414.06554,655.68372 0.9294,-12.69625 -87.86843,3.37032 0.53109,12.62327 86.40794,-3.29734 z"
       id="path4376"
       inkscape:connector-curvature="0" />
    <path
       style="color:#000000;fill:#e4e0e0;fill-opacity:1;fill-rule:nonzero;stroke:none;stroke-width:7.47100019;marker:none;visibility:visible;display:inline;overflow:visible;enable-background:accumulate"
       d="m 418.42046,678.49029 136.03807,1.67293 -1.35427,-14.57836 -133.40919,-1.64637 -1.27461,14.5518 z"
       id="path4358"
       inkscape:connector-curvature="0" />
    <path
       style="color:#000000;fill:#e4e0e0;fill-opacity:1;fill-rule:nonzero;stroke:none;stroke-width:7.47100019;marker:none;visibility:visible;display:inline;overflow:visible;enable-background:accumulate"
       d="m 413.61411,663.85883 -171.78028,-2.12435 1.38083,14.57835 169.12484,2.0978 1.27461,-14.5518 z"
       id="path4356"
       inkscape:connector-curvature="0" />
    <path
       style="color:#000000;fill:#e4e0e0;fill-opacity:1;fill-rule:nonzero;stroke:none;stroke-width:7.47100019;marker:none;visibility:visible;display:inline;overflow:visible;enable-background:accumulate"
       d="m 333.68544,696.57382 69.97078,-0.55764 -0.26554,14.39247 150.21811,6.7182 0.2921,-15.13594 -135.87875,-6.08095 137.55167,-1.06217 -0.0796,-10.86074 -221.35728,1.69948 -0.45143,10.88729 z"
       id="path4353"
       inkscape:connector-curvature="0" />
    <path
       style="color:#000000;fill:#e4e0e0;fill-opacity:1;fill-rule:nonzero;stroke:none;stroke-width:7.47100019;marker:none;visibility:visible;display:inline;overflow:visible;enable-background:accumulate"
       d="m 328.10902,684.04016 -63.62429,0.47797 0.0531,10.8873 63.11976,-0.50453 0.45142,-10.86074 z"
       id="path4351"
       inkscape:connector-curvature="0" />
  </g>
  <g
     inkscape:groupmode="layer"
     id="layer4"
     inkscape:label="texto"
     style="display:inline">
    <flowRoot
       xml:space="preserve"
       id="flowRoot4017"
       style="font-size:40px;font-style:normal;font-variant:normal;font-weight:normal;font-stretch:normal;text-align:start;line-height:125%;letter-spacing:0px;word-spacing:0px;writing-mode:lr-tb;text-anchor:start;fill:#e4e0e0;fill-opacity:1;stroke:none;display:inline;font-family:cmmi10;-inkscape-font-specification:cmmi10"
       transform="matrix(4.2076243,0,0,4.2076243,-532.09057,-1915.2233)"><flowRegion
         id="flowRegion4019"><rect
           id="rect4021"
           width="55.569553"
           height="55.569599"
           x="168.69337"
           y="558.18982"
           style="font-size:40px;font-style:normal;font-variant:normal;font-weight:normal;font-stretch:normal;text-align:start;line-height:125%;writing-mode:lr-tb;text-anchor:start;fill:#e4e0e0;fill-opacity:1;font-family:cmmi10;-inkscape-font-specification:cmmi10" /></flowRegion><flowPara
         id="flowPara4023">git</flowPara></flowRoot>    <flowRoot
       transform="matrix(1.1443952,0,0,1.1443952,143.58292,-47.444196)"
       style="font-size:15.83285809px;font-style:normal;font-variant:normal;font-weight:normal;font-stretch:normal;text-align:start;line-height:125%;letter-spacing:0px;word-spacing:0px;writing-mode:lr-tb;text-anchor:start;fill:#e4e0e0;fill-opacity:1;stroke:none;display:inline;font-family:FreeMono;-inkscape-font-specification:FreeMono"
       id="flowRoot4034"
       xml:space="preserve"><flowRegion
         id="flowRegion4036"><rect
           style="font-size:15.83285809px;font-style:normal;font-variant:normal;font-weight:normal;font-stretch:normal;text-align:start;line-height:125%;writing-mode:lr-tb;text-anchor:start;fill:#e4e0e0;fill-opacity:1;font-family:FreeMono;-inkscape-font-specification:FreeMono"
           y="567.47369"
           x="53.002052"
           height="23.719925"
           width="323.79117"
           id="rect4038" /></flowRegion><flowPara
         id="flowPara4040">    (global information  tracker)</flowPara></flowRoot>    <flowRoot
       xml:space="preserve"
       id="flowRoot4042"
       style="font-size:15.83285809px;font-style:normal;font-variant:normal;font-weight:normal;font-stretch:normal;text-align:start;line-height:125%;letter-spacing:0px;word-spacing:0px;writing-mode:lr-tb;text-anchor:start;fill:#e4e0e0;fill-opacity:1;stroke:none;display:inline;font-family:FreeMono;-inkscape-font-specification:FreeMono"
       transform="matrix(1.1443952,0,0,1.1443952,78.39682,-30.757569)"><flowRegion
         id="flowRegion4044"><rect
           id="rect4046"
           width="374.47571"
           height="23.082199"
           x="53.002052"
           y="567.47369"
           style="font-size:15.83285809px;font-style:normal;font-variant:normal;font-weight:normal;font-stretch:normal;text-align:start;line-height:125%;writing-mode:lr-tb;text-anchor:start;fill:#e4e0e0;fill-opacity:1;font-family:FreeMono;-inkscape-font-specification:FreeMono" /></flowRegion><flowPara
         id="flowPara4048">    (goddamn idiotic truckload of shit)</flowPara></flowRoot>    <text
       xml:space="preserve"
       style="font-size:24.73621178px;font-style:normal;font-variant:normal;font-weight:bold;font-stretch:normal;text-align:start;line-height:125%;letter-spacing:0px;word-spacing:0px;writing-mode:lr-tb;text-anchor:start;fill:#ffffff;fill-opacity:1;stroke:none;font-family:FreeMono;-inkscape-font-specification:FreeMono Bold"
       x="142.40012"
       y="460.27383"
       id="text3070"
       sodipodi:linespacing="125%"><tspan
         sodipodi:role="line"
         id="tspan3072"
         x="142.40012"
         y="460.27383">Taller introductorio al</tspan></text>
    <text
       sodipodi:linespacing="125%"
       id="text3842"
       y="477.77835"
       x="340.25784"
       style="font-size:27.66517258px;font-style:normal;font-variant:normal;font-weight:bold;font-stretch:normal;text-align:start;line-height:125%;letter-spacing:0px;word-spacing:0px;writing-mode:lr-tb;text-anchor:start;fill:#ffffff;fill-opacity:1;stroke:none;font-family:FreeMono;-inkscape-font-specification:FreeMono Bold"
       xml:space="preserve"><tspan
         y="477.77835"
         x="340.25784"
         id="tspan3844"
         sodipodi:role="line">control de versiones</tspan></text>
    <flowRoot
       xml:space="preserve"
       id="flowRoot4271"
       style="font-size:18px;font-style:normal;font-variant:normal;font-weight:normal;font-stretch:normal;text-align:start;line-height:125%;letter-spacing:0px;word-spacing:0px;writing-mode:lr-tb;text-anchor:start;color:#000000;fill:#000000;fill-opacity:1;fill-rule:nonzero;stroke:none;marker:none;visibility:visible;display:inline;overflow:visible;enable-background:accumulate;font-family:DejaVu Sans Mono;-inkscape-font-specification:DejaVu Sans Mono"
       transform="matrix(0.84974007,0,0,0.84974007,62.056628,-68.733802)"><flowRegion
         id="flowRegion4273"><rect
           id="rect4275"
           width="375.33621"
           height="100.26717"
           x="205.85818"
           y="834.96881"
           style="font-size:18px;font-style:normal;font-variant:normal;font-weight:normal;font-stretch:normal;text-align:start;line-height:125%;writing-mode:lr-tb;text-anchor:start;color:#000000;fill:#000000;fill-opacity:1;fill-rule:nonzero;stroke:none;marker:none;visibility:visible;display:inline;overflow:visible;enable-background:accumulate;font-family:DejaVu Sans Mono;-inkscape-font-specification:DejaVu Sans Mono" /></flowRegion><flowPara
         id="flowPara4316"
         style="font-size:17.5px;font-style:normal;font-variant:normal;font-weight:normal;font-stretch:normal;text-align:end;line-height:125%;writing-mode:lr-tb;text-anchor:end;fill:#000000;font-family:DejaVu Sans Mono;-inkscape-font-specification:DejaVu Sans Mono">El taller no tiene costo.</flowPara><flowPara
         id="flowPara4318"
         style="font-size:20px;font-style:normal;font-variant:normal;font-weight:bold;font-stretch:normal;text-align:end;line-height:125%;writing-mode:lr-tb;text-anchor:end;fill:#000000;font-family:DejaVu Sans Mono;-inkscape-font-specification:DejaVu Sans Mono Bold"><flowSpan
   style="font-size:18px;font-style:normal;font-variant:normal;font-weight:normal;font-stretch:normal;text-align:end;line-height:125%;writing-mode:lr-tb;text-anchor:end;fill:#000000;font-family:DejaVu Sans Mono;-inkscape-font-specification:DejaVu Sans Mono"
   id="flowSpan4322">Es de </flowSpan>Cooperación Colaborativa.</flowPara><flowPara
         id="flowPara4320"
         style="font-size:16px;font-style:normal;font-variant:normal;font-weight:normal;font-stretch:normal;text-align:end;line-height:125%;writing-mode:lr-tb;text-anchor:end;fill:#000000;font-family:DejaVu Sans Mono;-inkscape-font-specification:DejaVu Sans Mono">Lavamos nuestros trastes y cuidamos nuestro espacio.</flowPara></flowRoot>    <text
       xml:space="preserve"
       style="font-size:24.92822266px;font-style:normal;font-variant:normal;font-weight:bold;font-stretch:normal;text-align:end;line-height:125%;letter-spacing:0px;word-spacing:0px;writing-mode:lr-tb;text-anchor:end;fill:#ffffff;fill-opacity:1;stroke:none;font-family:FreeMono;-inkscape-font-specification:FreeMono Bold"
       x="530.73035"
       y="530.57532"
       id="text5643"
       sodipodi:linespacing="125%"><tspan
         sodipodi:role="line"
         id="tspan3253"
         x="530.73035"
         y="530.57532" /><tspan
         sodipodi:role="line"
         id="tspan3257"
         x="545.67755"
         y="561.7356">de enero </tspan></text>
    <flowRoot
       transform="matrix(3.8124603,0,0,3.8124603,-495.83325,-1437.7288)"
       style="font-size:6.65458679px;font-style:normal;font-variant:normal;font-weight:normal;font-stretch:normal;text-align:start;line-height:125%;letter-spacing:0px;word-spacing:0px;writing-mode:lr-tb;text-anchor:start;fill:#e4e0e0;fill-opacity:1;stroke:none;display:inline;font-family:cmmi10;-inkscape-font-specification:cmmi10"
       id="flowRoot5661"
       xml:space="preserve"><flowRegion
         id="flowRegion5663"><rect
           style="font-size:6.65458679px;font-style:normal;font-variant:normal;font-weight:normal;font-stretch:normal;text-align:start;line-height:125%;writing-mode:lr-tb;text-anchor:start;fill:#e4e0e0;fill-opacity:1;font-family:cmmi10;-inkscape-font-specification:cmmi10"
           y="558.18982"
           x="168.69337"
           height="11.678501"
           width="78.800621"
           id="rect5665" /></flowRegion><flowPara
         id="flowPara5733"><flowSpan
           style="font-size:6.9197216px;font-style:normal;font-variant:normal;font-weight:normal;font-stretch:normal;text-align:start;line-height:125%;writing-mode:lr-tb;text-anchor:start;font-family:cmmi10;-inkscape-font-specification:cmmi10"
           id="flowSpan5761">ranchoelectronico:org</flowSpan><flowSpan
           style="font-size:9.59757233px;font-style:normal;font-variant:normal;font-weight:normal;font-stretch:normal;text-align:start;line-height:125%;writing-mode:lr-tb;text-anchor:start;font-family:FreeMono;-inkscape-font-specification:FreeMono"
           id="flowSpan5735" /></flowPara></flowRoot>    <text
       sodipodi:linespacing="125%"
       id="text3259"
       y="541.42816"
       x="508.10294"
       style="font-size:70.72943878px;font-style:normal;font-variant:normal;font-weight:bold;font-stretch:normal;text-align:end;line-height:125%;letter-spacing:0px;word-spacing:0px;writing-mode:lr-tb;text-anchor:end;fill:#ffffff;fill-opacity:1;stroke:none;font-family:FreeMono;-inkscape-font-specification:FreeMono Bold"
       xml:space="preserve"><tspan
         y="541.42816"
         x="550.513"
         id="tspan3265"
         sodipodi:role="line">28 </tspan></text>
    <text
       sodipodi:linespacing="125%"
       id="text3267"
       y="553.90991"
       x="532.85168"
       style="font-size:24.92822266px;font-style:normal;font-variant:normal;font-weight:bold;font-stretch:normal;text-align:end;line-height:125%;letter-spacing:0px;word-spacing:0px;writing-mode:lr-tb;text-anchor:end;fill:#ffffff;fill-opacity:1;stroke:none;font-family:FreeMono;-inkscape-font-specification:FreeMono Bold"
       xml:space="preserve"><tspan
         y="553.90991"
         x="532.85168"
         id="tspan3269"
         sodipodi:role="line" /><tspan
         y="585.07019"
         x="547.79889"
         id="tspan3273"
         sodipodi:role="line">12:00 pm </tspan></text>
  </g>
</svg>
